Coordinates
version=1
nRows=35
nColumns=18
inDegrees=yes

Units are S.I. units (second, meters, Newtons, ...)
If the header above contains a line with 'inDegrees', this indicates whether rotational values are in degrees (yes) or radians (no).

endheader
time	ground_thorax_rot_x	ground_thorax_rot_y	ground_thorax_rot_z	ground_thorax_tx	ground_thorax_ty	ground_thorax_tz	clav_prot	clav_elev	scapula_abduction	scapula_elevation	scapula_upward_rot	scapula_winging	plane_elv	shoulder_elv	axial_rot	elbow_flexion	pro_sup
      0.00000000	      3.47580222	     -2.39309867	     -8.58761667	     -0.00452979	      0.00402893	      0.00074508	    -23.84068872	     -5.74982144	    -16.62856503	     -4.10661079	      8.85618622	      6.93308470	    -32.20765443	     18.72787498	     53.08586897	      0.00000000	     34.32000000
      0.01000000	      3.47601090	     -2.39233601	     -8.58705573	     -0.00443046	      0.00403603	      0.00071377	    -23.84056085	     -5.75007574	    -16.62829099	     -4.10679610	      8.85616973	      6.93317043	    -32.20755156	     18.72735918	     53.08597199	      0.00000000	     34.32000000
      0.02000000	      3.47604950	     -2.39147915	     -8.58673678	     -0.00432287	      0.00409640	      0.00065560	    -23.84038575	     -5.75014936	    -16.62806480	     -4.10679448	      8.85599737	      6.93323668	    -32.20745903	     18.72658955	     53.08606129	      0.00000000	     34.32000000
      0.03000000	      3.47075479	     -2.33938316	     -8.60026103	     -0.00432190	      0.00413629	      0.00055125	    -23.83145611	     -5.74494160	    -16.62766155	     -4.09506084	      8.83034267	      6.93764859	    -32.21168638	     18.67604138	     53.09585460	      0.00000000	     34.32000000
      0.04000000	      3.47079906	     -2.33922100	     -8.60033223	     -0.00430619	      0.00411513	      0.00052705	    -23.83148549	     -5.74490539	    -16.62782790	     -4.09497870	      8.83014164	      6.93768541	    -32.21177158	     18.67576371	     53.09597125	      0.00000000	     34.32000000
      0.05000000	      3.47071571	     -2.33901712	     -8.60051226	     -0.00434600	      0.00408820	      0.00056219	    -23.83149351	     -5.74487556	    -16.62789693	     -4.09493095	      8.83005139	      6.93769721	    -32.21185995	     18.67566543	     53.09609702	      0.00000000	     34.32000000
      0.06000000	      3.47055012	     -2.33897898	     -8.60080297	     -0.00440958	      0.00409602	      0.00058693	    -23.83148018	     -5.74478179	    -16.62795806	     -4.09482509	      8.82993576	      6.93769318	    -32.21194140	     18.67550407	     53.09622021	      0.00000000	     34.32000000
      0.07000000	      3.47093107	     -2.33919530	     -8.60088839	     -0.00445117	      0.00409027	      0.00055568	    -23.83144548	     -5.74486726	    -16.62810252	     -4.09477256	      8.82951516	      6.93782468	    -32.21206847	     18.67499340	     53.09632410	      0.00000000	     34.32000000
      0.08000000	      3.47174355	     -2.33950458	     -8.60081027	     -0.00447231	      0.00403515	      0.00053174	    -23.83144168	     -5.74512987	    -16.62832443	     -4.09482506	      8.82896981	      6.93804739	    -32.21227362	     18.67451889	     53.09642371	      0.00000000	     34.32000000
      0.09000000	      3.47219865	     -2.33962554	     -8.60078339	     -0.00447613	      0.00397821	      0.00056158	    -23.83150897	     -5.74530687	    -16.62851853	     -4.09490410	      8.82874360	      6.93816347	    -32.21246464	     18.67450321	     53.09654508	      0.00000000	     34.32000000
      0.10000000	      3.47192060	     -2.33930069	     -8.60075824	     -0.00443822	      0.00397677	      0.00060988	    -23.83159284	     -5.74529007	    -16.62854634	     -4.09495889	      8.82896892	      6.93810333	    -32.21251050	     18.67475535	     53.09669052	      0.00000000	     34.32000000
      0.11000000	      3.47127517	     -2.33874932	     -8.60072497	     -0.00438571	      0.00401462	      0.00063275	    -23.83165794	     -5.74516849	    -16.62846997	     -4.09498146	      8.82937586	      6.93796297	    -32.21244813	     18.67497078	     53.09684496	      0.00000000	     34.32000000
      0.12000000	      3.47094379	     -2.33857423	     -8.60081167	     -0.00438493	      0.00403248	      0.00061730	    -23.83173973	     -5.74509400	    -16.62852379	     -4.09498300	      8.82957147	      6.93789030	    -32.21245132	     18.67507189	     53.09699253	      0.00000000	     34.32000000
      0.13000000	      3.47113161	     -2.33884743	     -8.60095299	     -0.00442870	      0.00402336	      0.00057637	    -23.83182382	     -5.74515085	    -16.62872714	     -4.09499477	      8.82943561	      6.93794333	    -32.21256409	     18.67498152	     53.09712672	      0.00000000	     34.32000000
      0.14000000	      3.47147671	     -2.33898839	     -8.60083215	     -0.00444015	      0.00402116	      0.00052923	    -23.83184882	     -5.74535208	    -16.62884776	     -4.09508743	      8.82920020	      6.93806971	    -32.21264166	     18.67458731	     53.09725309	      0.00000000	     34.32000000
      0.15000000	      3.47172438	     -2.33870933	     -8.60030872	     -0.00439538	      0.00402362	      0.00048572	    -23.83183321	     -5.74569569	    -16.62879713	     -4.09532344	      8.82909155	      6.93821376	    -32.21257954	     18.67399555	     53.09738487	      0.00000000	     34.32000000
      0.16000000	      3.47210459	     -2.33849445	     -8.59975508	     -0.00435568	      0.00400458	      0.00044015	    -23.83186035	     -5.74610973	    -16.62882132	     -4.09560744	      8.82894881	      6.93839047	    -32.21250314	     18.67345289	     53.09752384	      0.00000000	     34.32000000
      0.17000000	      3.47281172	     -2.33888303	     -8.59968788	     -0.00436595	      0.00398062	      0.00038414	    -23.83196044	     -5.74640996	    -16.62918509	     -4.09571010	      8.82845520	      6.93861407	    -32.21261121	     18.67303323	     53.09765491	      0.00000000	     34.32000000
      0.18000000	      3.47346158	     -2.33976257	     -8.60022524	     -0.00440608	      0.00400006	      0.00033163	    -23.83209407	     -5.74641078	    -16.62983558	     -4.09549988	      8.82766566	      6.93880737	    -32.21289484	     18.67268275	     53.09777241	      0.00000000	     34.32000000
      0.19000000	      3.47220432	     -2.36364834	     -8.61012968	     -0.00436269	      0.00405415	      0.00041379	    -23.84257247	     -5.75074967	    -16.66382680	     -4.09066267	      8.79573181	      6.94812668	    -32.21765387	     18.64612511	     53.11455333	      0.00000000	     34.32000000
      0.20000000	      3.47204644	     -2.36361539	     -8.61000714	     -0.00436469	      0.00406095	      0.00040042	    -23.84263754	     -5.75086219	    -16.66395466	     -4.09073188	      8.79565130	      6.94818518	    -32.21756515	     18.64584107	     53.11471969	      0.00000000	     34.32000000
      0.21000000	      3.47225140	     -2.36314092	     -8.60942906	     -0.00434271	      0.00400825	      0.00042766	    -23.84263019	     -5.75129629	    -16.66385991	     -4.09105793	      8.79561155	      6.94834348	    -32.21743559	     18.64547877	     53.11488322	      0.00000000	     34.32000000
      0.22000000	      3.47225651	     -2.36207917	     -8.60866109	     -0.00429863	      0.00394760	      0.00050927	    -23.84258293	     -5.75180499	    -16.66350246	     -4.09153144	      8.79590275	      6.94844655	    -32.21721440	     18.64536114	     53.11506366	      0.00000000	     34.32000000
      0.23000000	      3.46813028	     -2.33024008	     -8.59657477	     -0.00433762	      0.00395984	      0.00052290	    -23.84495646	     -5.76438513	    -16.65698040	     -4.10542696	      8.81016489	      6.94928657	    -32.20947602	     18.64930999	     53.12472640	      0.00000000	     34.32000000
      0.24000000	      3.46782768	     -2.32961044	     -8.59661358	     -0.00430513	      0.00397186	      0.00055609	    -23.84498748	     -5.76439896	    -16.65690736	     -4.10550189	      8.81039617	      6.94924849	    -32.20938973	     18.64955611	     53.12490293	      0.00000000	     34.32000000
      0.25000000	      3.46777899	     -2.32926691	     -8.59687148	     -0.00432194	      0.00397627	      0.00057281	    -23.84500303	     -5.76440318	    -16.65692026	     -4.10551281	      8.81042016	      6.94924418	    -32.20940081	     18.64975711	     53.12507095	      0.00000000	     34.32000000
      0.26000000	      3.46803017	     -2.32875354	     -8.59708773	     -0.00434398	      0.00394411	      0.00062459	    -23.84493994	     -5.76452214	    -16.65682077	     -4.10558202	      8.81035057	      6.94930159	    -32.20947115	     18.64998854	     53.12523679	      0.00000000	     34.32000000
      0.27000000	      3.46930159	     -2.32738851	     -8.59724766	     -0.00432526	      0.00388449	      0.00067376	    -23.84470235	     -5.76504221	    -16.65647348	     -4.10587547	      8.81000491	      6.94956283	    -32.20962904	     18.65022563	     53.12557199	      0.00000000	     34.32000000
      0.28000000	      3.55772617	     -1.92167380	     -8.58103832	     -0.00450444	      0.00404218	      0.00063524	    -24.14641252	     -5.78904157	    -17.08425785	     -4.18729059	      8.96758628	      6.91976781	    -33.10739720	     18.42165787	     55.99828599	      0.00000000	     34.32000000
      0.29000000	      3.55769495	     -1.92125343	     -8.58058752	     -0.00448260	      0.00402332	      0.00065294	    -24.14636826	     -5.78926035	    -17.08401677	     -4.18752170	      8.96780814	      6.91978835	    -33.10723273	     18.42157092	     55.99829861	      0.00000000	     34.32000000
      0.30000000	      3.55739407	     -1.92092001	     -8.58036804	     -0.00450497	      0.00402790	      0.00069084	    -24.14634045	     -5.78934726	    -17.08377082	     -4.18767945	      8.96814007	      6.91973791	    -33.10705059	     18.42165315	     55.99831681	      0.00000000	     34.32000000
      0.31000000	      3.55707355	     -1.92096960	     -8.58042210	     -0.00452860	      0.00406528	      0.00067965	    -24.14635436	     -5.78924713	    -17.08372608	     -4.18765034	      8.96831280	      6.91966120	    -33.10693024	     18.42169413	     55.99832473	      0.00000000	     34.32000000
      0.32000000	      3.55686492	     -1.92162531	     -8.58076283	     -0.00453693	      0.00412852	      0.00059010	    -24.14645454	     -5.78894896	    -17.08405056	     -4.18738259	      8.96816001	      6.91959465	    -33.10692443	     18.42157069	     55.99831493	      0.00000000	     34.32000000
      0.33000000	      3.55673242	     -1.92252095	     -8.58114697	     -0.00454250	      0.00416980	      0.00049955	    -24.14659885	     -5.78862730	    -17.08454285	     -4.18705457	      8.96784547	      6.91955910	    -33.10698421	     18.42137587	     55.99829816	      0.00000000	     34.32000000
      0.34000000	      3.55653646	     -1.92293708	     -8.58118746	     -0.00453887	      0.00416776	      0.00048479	    -24.14667038	     -5.78849543	    -17.08478410	     -4.18691142	      8.96768244	      6.91955276	    -33.10696991	     18.42115409	     55.99828898	      0.00000000	     34.32000000
